<svg id="Ebene_1" data-name="Ebene 1" xmlns="http://www.w3.org/2000/svg" viewBox="0 0 311.81 308.92"><defs><style>.cls-1{fill:#fff;}.cls-2{fill:#009fe3;}.cls-3{fill:#2d52a0;}.cls-4{fill:#af378c;}</style></defs><ellipse class="cls-1" cx="95.94" cy="152.27" rx="11.76" ry="11.88" transform="translate(-76.2 204.82) rotate(-74.76)"/><polygon class="cls-1" points="133.19 84.03 138.12 81.72 259.63 151.88 259.63 157.04 138.12 227.19 133.19 224.35 133.19 84.03"/><polygon class="cls-2" points="133.19 224.35 52.18 224.35 11.67 154.19 52.18 84.03 133.19 84.03 173.69 154.19 133.19 224.35"/><polygon class="cls-3" points="259.63 151.88 178.62 151.88 138.12 81.72 178.62 11.56 259.63 11.56 300.14 81.72 259.63 151.88"/><polygon class="cls-4" points="259.63 297.35 178.62 297.35 138.12 227.19 178.62 157.04 259.63 157.04 300.14 227.19 259.63 297.35"/><path class="cls-1" d="M215.64,215.8,185.07,163A11.81,11.81,0,0,0,187.15,148a12.13,12.13,0,0,0-1.81-2.26l32.37-56.14a12,12,0,0,0,9.54-1.11,11.81,11.81,0,0,0,4.22-16.29A12.12,12.12,0,0,0,215,68a11.83,11.83,0,0,0-2,19L180.78,143A12,12,0,0,0,170.63,144a11.79,11.79,0,0,0-5.45,7.51H104.37a11.58,11.58,0,0,0-1.43-3.47,12.11,12.11,0,0,0-16.52-4,11.81,11.81,0,0,0-4,16.34,12.13,12.13,0,0,0,16.52,4,11.8,11.8,0,0,0,5.45-7.51h60.82a11.64,11.64,0,0,0,1.43,3.46,12.11,12.11,0,0,0,13.75,5.25L211,218.43a11.81,11.81,0,0,0-2.08,14.92,12.11,12.11,0,0,0,16.52,4,11.82,11.82,0,0,0,4-16.34A12.12,12.12,0,0,0,215.64,215.8Z"/><ellipse class="cls-1" cx="216.22" cy="230.39" rx="11.9" ry="12.02" transform="translate(-61.4 381.25) rotate(-75.34)"/></svg>